%TF.GenerationSoftware,KiCad,Pcbnew,(6.0.4-0)*%
%TF.CreationDate,2022-07-09T20:17:42+01:00*%
%TF.ProjectId,minimal-ffc-i2c,6d696e69-6d61-46c2-9d66-66632d693263,rev?*%
%TF.SameCoordinates,Original*%
%TF.FileFunction,Copper,L1,Top*%
%TF.FilePolarity,Positive*%
%FSLAX46Y46*%
G04 Gerber Fmt 4.6, Leading zero omitted, Abs format (unit mm)*
G04 Created by KiCad (PCBNEW (6.0.4-0)) date 2022-07-09 20:17:42*
%MOMM*%
%LPD*%
G01*
G04 APERTURE LIST*
G04 Aperture macros list*
%AMRoundRect*
0 Rectangle with rounded corners*
0 $1 Rounding radius*
0 $2 $3 $4 $5 $6 $7 $8 $9 X,Y pos of 4 corners*
0 Add a 4 corners polygon primitive as box body*
4,1,4,$2,$3,$4,$5,$6,$7,$8,$9,$2,$3,0*
0 Add four circle primitives for the rounded corners*
1,1,$1+$1,$2,$3*
1,1,$1+$1,$4,$5*
1,1,$1+$1,$6,$7*
1,1,$1+$1,$8,$9*
0 Add four rect primitives between the rounded corners*
20,1,$1+$1,$2,$3,$4,$5,0*
20,1,$1+$1,$4,$5,$6,$7,0*
20,1,$1+$1,$6,$7,$8,$9,0*
20,1,$1+$1,$8,$9,$2,$3,0*%
G04 Aperture macros list end*
%TA.AperFunction,SMDPad,CuDef*%
%ADD10RoundRect,0.250000X0.350000X0.450000X-0.350000X0.450000X-0.350000X-0.450000X0.350000X-0.450000X0*%
%TD*%
%TA.AperFunction,ComponentPad*%
%ADD11R,1.700000X1.700000*%
%TD*%
%TA.AperFunction,ComponentPad*%
%ADD12O,1.700000X1.700000*%
%TD*%
%TA.AperFunction,SMDPad,CuDef*%
%ADD13RoundRect,0.250000X-0.350000X-0.450000X0.350000X-0.450000X0.350000X0.450000X-0.350000X0.450000X0*%
%TD*%
%TA.AperFunction,SMDPad,CuDef*%
%ADD14R,0.280000X1.250000*%
%TD*%
%TA.AperFunction,SMDPad,CuDef*%
%ADD15R,1.800000X2.000000*%
%TD*%
%TA.AperFunction,ViaPad*%
%ADD16C,0.800000*%
%TD*%
%TA.AperFunction,Conductor*%
%ADD17C,0.250000*%
%TD*%
G04 APERTURE END LIST*
D10*
%TO.P,R1,1*%
%TO.N,sck*%
X112000000Y-96000000D03*
%TO.P,R1,2*%
%TO.N,vcc*%
X110000000Y-96000000D03*
%TD*%
D11*
%TO.P,J1,1,Pin_1*%
%TO.N,gnd*%
X115550000Y-98750000D03*
D12*
%TO.P,J1,2,Pin_2*%
%TO.N,vcc*%
X113010000Y-98750000D03*
%TO.P,J1,3,Pin_3*%
%TO.N,sck*%
X110470000Y-98750000D03*
%TO.P,J1,4,Pin_4*%
%TO.N,sda*%
X107930000Y-98750000D03*
%TD*%
D13*
%TO.P,R2,1*%
%TO.N,sda*%
X113750000Y-96000000D03*
%TO.P,R2,2*%
%TO.N,vcc*%
X115750000Y-96000000D03*
%TD*%
D14*
%TO.P,J2,1,Pin_1*%
%TO.N,vcc*%
X114500000Y-93520000D03*
%TO.P,J2,2,Pin_2*%
%TO.N,gnd*%
X114000000Y-93520000D03*
%TO.P,J2,3,Pin_3*%
%TO.N,sda*%
X113500000Y-93520000D03*
%TO.P,J2,4,Pin_4*%
%TO.N,sck*%
X113000000Y-93520000D03*
%TO.P,J2,5,Pin_5*%
%TO.N,unconnected-(J2-Pad5)*%
X112500000Y-93520000D03*
%TO.P,J2,6,Pin_6*%
%TO.N,unconnected-(J2-Pad6)*%
X112000000Y-93520000D03*
%TO.P,J2,7,Pin_7*%
%TO.N,unconnected-(J2-Pad7)*%
X111500000Y-93520000D03*
%TO.P,J2,8,Pin_8*%
%TO.N,unconnected-(J2-Pad8)*%
X111000000Y-93520000D03*
%TO.P,J2,9,Pin_9*%
%TO.N,unconnected-(J2-Pad9)*%
X110500000Y-93520000D03*
%TO.P,J2,10,Pin_10*%
%TO.N,unconnected-(J2-Pad10)*%
X110000000Y-93520000D03*
%TO.P,J2,11,Pin_11*%
%TO.N,unconnected-(J2-Pad11)*%
X109500000Y-93520000D03*
%TO.P,J2,12,Pin_12*%
%TO.N,unconnected-(J2-Pad12)*%
X109000000Y-93520000D03*
D15*
%TO.P,J2,13*%
%TO.N,N/C*%
X107200000Y-90796000D03*
%TO.P,J2,14*%
X116300000Y-90796000D03*
%TD*%
D16*
%TO.N,vcc*%
X116750000Y-95000000D03*
X109000000Y-95000000D03*
%TO.N,sda*%
X111750000Y-97500000D03*
%TD*%
D17*
%TO.N,vcc*%
X110000000Y-96000000D02*
X109295489Y-96704511D01*
X109295489Y-99295489D02*
X110000000Y-100000000D01*
X109295489Y-96704511D02*
X109295489Y-99295489D01*
X111760000Y-100000000D02*
X113010000Y-98750000D01*
X110000000Y-100000000D02*
X111760000Y-100000000D01*
%TO.N,gnd*%
X114825480Y-98025480D02*
X115550000Y-98750000D01*
X114000000Y-93520000D02*
X114000000Y-94637507D01*
X114825480Y-95462987D02*
X114825480Y-98025480D01*
X114000000Y-94637507D02*
X114825480Y-95462987D01*
%TO.N,vcc*%
X114500000Y-93520000D02*
X114500000Y-94501789D01*
X110000000Y-96000000D02*
X109000000Y-95000000D01*
X116750000Y-95000000D02*
X115750000Y-96000000D01*
X114500000Y-94501789D02*
X115750000Y-95751789D01*
X115750000Y-95751789D02*
X115750000Y-96000000D01*
%TO.N,sck*%
X113000000Y-94434022D02*
X112000000Y-95434022D01*
X112000000Y-96000000D02*
X110470000Y-97530000D01*
X112000000Y-95434022D02*
X112000000Y-96000000D01*
X110470000Y-97530000D02*
X110470000Y-98750000D01*
X113000000Y-93520000D02*
X113000000Y-94434022D01*
%TO.N,sda*%
X113750000Y-96000000D02*
X112250000Y-97500000D01*
X112250000Y-97500000D02*
X111750000Y-97500000D01*
X113500000Y-95750000D02*
X113750000Y-96000000D01*
X113500000Y-93520000D02*
X113500000Y-95750000D01*
%TD*%
M02*
