%TF.GenerationSoftware,KiCad,Pcbnew,(6.0.4-0)*%
%TF.CreationDate,2022-07-09T20:17:42+01:00*%
%TF.ProjectId,minimal-ffc-i2c,6d696e69-6d61-46c2-9d66-66632d693263,rev?*%
%TF.SameCoordinates,Original*%
%TF.FileFunction,Legend,Bot*%
%TF.FilePolarity,Positive*%
%FSLAX46Y46*%
G04 Gerber Fmt 4.6, Leading zero omitted, Abs format (unit mm)*
G04 Created by KiCad (PCBNEW (6.0.4-0)) date 2022-07-09 20:17:42*
%MOMM*%
%LPD*%
G01*
G04 APERTURE LIST*
%ADD10C,0.150000*%
G04 APERTURE END LIST*
D10*
X116226190Y-88425714D02*
X115845238Y-88425714D01*
X116083333Y-89092380D02*
X116083333Y-88235238D01*
X116035714Y-88140000D01*
X115940476Y-88092380D01*
X115845238Y-88092380D01*
X115654761Y-88425714D02*
X115273809Y-88425714D01*
X115511904Y-89092380D02*
X115511904Y-88235238D01*
X115464285Y-88140000D01*
X115369047Y-88092380D01*
X115273809Y-88092380D01*
X114511904Y-89044761D02*
X114607142Y-89092380D01*
X114797619Y-89092380D01*
X114892857Y-89044761D01*
X114940476Y-88997142D01*
X114988095Y-88901904D01*
X114988095Y-88616190D01*
X114940476Y-88520952D01*
X114892857Y-88473333D01*
X114797619Y-88425714D01*
X114607142Y-88425714D01*
X114511904Y-88473333D01*
X114083333Y-88711428D02*
X113321428Y-88711428D01*
X112988095Y-88425714D02*
X112607142Y-88425714D01*
X112845238Y-88092380D02*
X112845238Y-88949523D01*
X112797619Y-89044761D01*
X112702380Y-89092380D01*
X112607142Y-89092380D01*
X112130952Y-89092380D02*
X112226190Y-89044761D01*
X112273809Y-88997142D01*
X112321428Y-88901904D01*
X112321428Y-88616190D01*
X112273809Y-88520952D01*
X112226190Y-88473333D01*
X112130952Y-88425714D01*
X111988095Y-88425714D01*
X111892857Y-88473333D01*
X111845238Y-88520952D01*
X111797619Y-88616190D01*
X111797619Y-88901904D01*
X111845238Y-88997142D01*
X111892857Y-89044761D01*
X111988095Y-89092380D01*
X112130952Y-89092380D01*
X111369047Y-88711428D02*
X110607142Y-88711428D01*
X109988095Y-89092380D02*
X110083333Y-89044761D01*
X110130952Y-88997142D01*
X110178571Y-88901904D01*
X110178571Y-88616190D01*
X110130952Y-88520952D01*
X110083333Y-88473333D01*
X109988095Y-88425714D01*
X109845238Y-88425714D01*
X109750000Y-88473333D01*
X109702380Y-88520952D01*
X109654761Y-88616190D01*
X109654761Y-88901904D01*
X109702380Y-88997142D01*
X109750000Y-89044761D01*
X109845238Y-89092380D01*
X109988095Y-89092380D01*
X109083333Y-89092380D02*
X109178571Y-89044761D01*
X109226190Y-88949523D01*
X109226190Y-88092380D01*
X108321428Y-89044761D02*
X108416666Y-89092380D01*
X108607142Y-89092380D01*
X108702380Y-89044761D01*
X108750000Y-88949523D01*
X108750000Y-88568571D01*
X108702380Y-88473333D01*
X108607142Y-88425714D01*
X108416666Y-88425714D01*
X108321428Y-88473333D01*
X108273809Y-88568571D01*
X108273809Y-88663809D01*
X108750000Y-88759047D01*
X107416666Y-89092380D02*
X107416666Y-88092380D01*
X107416666Y-89044761D02*
X107511904Y-89092380D01*
X107702380Y-89092380D01*
X107797619Y-89044761D01*
X107845238Y-88997142D01*
X107892857Y-88901904D01*
X107892857Y-88616190D01*
X107845238Y-88520952D01*
X107797619Y-88473333D01*
X107702380Y-88425714D01*
X107511904Y-88425714D01*
X107416666Y-88473333D01*
X113916666Y-90702380D02*
X113916666Y-90178571D01*
X113964285Y-90083333D01*
X114059523Y-90035714D01*
X114250000Y-90035714D01*
X114345238Y-90083333D01*
X113916666Y-90654761D02*
X114011904Y-90702380D01*
X114250000Y-90702380D01*
X114345238Y-90654761D01*
X114392857Y-90559523D01*
X114392857Y-90464285D01*
X114345238Y-90369047D01*
X114250000Y-90321428D01*
X114011904Y-90321428D01*
X113916666Y-90273809D01*
X113011904Y-90702380D02*
X113011904Y-89702380D01*
X113011904Y-90654761D02*
X113107142Y-90702380D01*
X113297619Y-90702380D01*
X113392857Y-90654761D01*
X113440476Y-90607142D01*
X113488095Y-90511904D01*
X113488095Y-90226190D01*
X113440476Y-90130952D01*
X113392857Y-90083333D01*
X113297619Y-90035714D01*
X113107142Y-90035714D01*
X113011904Y-90083333D01*
X112107142Y-90702380D02*
X112107142Y-90178571D01*
X112154761Y-90083333D01*
X112250000Y-90035714D01*
X112440476Y-90035714D01*
X112535714Y-90083333D01*
X112107142Y-90654761D02*
X112202380Y-90702380D01*
X112440476Y-90702380D01*
X112535714Y-90654761D01*
X112583333Y-90559523D01*
X112583333Y-90464285D01*
X112535714Y-90369047D01*
X112440476Y-90321428D01*
X112202380Y-90321428D01*
X112107142Y-90273809D01*
X111630952Y-90035714D02*
X111630952Y-91035714D01*
X111630952Y-90083333D02*
X111535714Y-90035714D01*
X111345238Y-90035714D01*
X111250000Y-90083333D01*
X111202380Y-90130952D01*
X111154761Y-90226190D01*
X111154761Y-90511904D01*
X111202380Y-90607142D01*
X111250000Y-90654761D01*
X111345238Y-90702380D01*
X111535714Y-90702380D01*
X111630952Y-90654761D01*
X110869047Y-90035714D02*
X110488095Y-90035714D01*
X110726190Y-89702380D02*
X110726190Y-90559523D01*
X110678571Y-90654761D01*
X110583333Y-90702380D01*
X110488095Y-90702380D01*
X109773809Y-90654761D02*
X109869047Y-90702380D01*
X110059523Y-90702380D01*
X110154761Y-90654761D01*
X110202380Y-90559523D01*
X110202380Y-90178571D01*
X110154761Y-90083333D01*
X110059523Y-90035714D01*
X109869047Y-90035714D01*
X109773809Y-90083333D01*
X109726190Y-90178571D01*
X109726190Y-90273809D01*
X110202380Y-90369047D01*
X109297619Y-90702380D02*
X109297619Y-90035714D01*
X109297619Y-90226190D02*
X109250000Y-90130952D01*
X109202380Y-90083333D01*
X109107142Y-90035714D01*
X109011904Y-90035714D01*
X114297619Y-92312380D02*
X114297619Y-91312380D01*
X114297619Y-91693333D02*
X114202380Y-91645714D01*
X114011904Y-91645714D01*
X113916666Y-91693333D01*
X113869047Y-91740952D01*
X113821428Y-91836190D01*
X113821428Y-92121904D01*
X113869047Y-92217142D01*
X113916666Y-92264761D01*
X114011904Y-92312380D01*
X114202380Y-92312380D01*
X114297619Y-92264761D01*
X113488095Y-91645714D02*
X113250000Y-92312380D01*
X113011904Y-91645714D02*
X113250000Y-92312380D01*
X113345238Y-92550476D01*
X113392857Y-92598095D01*
X113488095Y-92645714D01*
X111869047Y-92312380D02*
X111869047Y-91312380D01*
X111869047Y-91693333D02*
X111773809Y-91645714D01*
X111583333Y-91645714D01*
X111488095Y-91693333D01*
X111440476Y-91740952D01*
X111392857Y-91836190D01*
X111392857Y-92121904D01*
X111440476Y-92217142D01*
X111488095Y-92264761D01*
X111583333Y-92312380D01*
X111773809Y-92312380D01*
X111869047Y-92264761D01*
X110821428Y-92312380D02*
X110916666Y-92264761D01*
X110964285Y-92217142D01*
X111011904Y-92121904D01*
X111011904Y-91836190D01*
X110964285Y-91740952D01*
X110916666Y-91693333D01*
X110821428Y-91645714D01*
X110678571Y-91645714D01*
X110583333Y-91693333D01*
X110535714Y-91740952D01*
X110488095Y-91836190D01*
X110488095Y-92121904D01*
X110535714Y-92217142D01*
X110583333Y-92264761D01*
X110678571Y-92312380D01*
X110821428Y-92312380D01*
X110059523Y-92312380D02*
X110059523Y-91645714D01*
X110059523Y-91740952D02*
X110011904Y-91693333D01*
X109916666Y-91645714D01*
X109773809Y-91645714D01*
X109678571Y-91693333D01*
X109630952Y-91788571D01*
X109630952Y-92312380D01*
X109630952Y-91788571D02*
X109583333Y-91693333D01*
X109488095Y-91645714D01*
X109345238Y-91645714D01*
X109250000Y-91693333D01*
X109202380Y-91788571D01*
X109202380Y-92312380D01*
M02*
